<svg xmlns="http://www.w3.org/2000/svg" width="960" height="229" viewBox="0 0 960 229"><defs><pattern id="dust" width="83" height="71" patternUnits="userSpaceOnUse"><path d="M9 15l6 1m48 32h-4" stroke="#666145" opacity=".14"/><circle cx="37" cy="23" r=".9" fill="#736d4b" opacity=".19"/></pattern><pattern id="vent" width="15" height="31" patternUnits="userSpaceOnUse"><path d="M3 4l9 -3v24l-9 3z" fill="#82917b" stroke="#29362b" stroke-width="1.2"/></pattern><linearGradient id="screen" x2="0" y2="1"><stop stop-color="#fff7bb"/><stop offset="1" stop-color="#f5ecaa"/></linearGradient></defs><rect x="0" y="0" width="960" height="229" fill="#18251d" stroke="none" stroke-width="0"/><rect x="12" y="0" width="936" height="229" fill="#29372a" stroke="none" stroke-width="0"/><rect x="38" y="0" width="884" height="229" fill="#f7edaf" stroke="none" stroke-width="0"/><rect x="38" y="0" width="884" height="229" fill="url(#dust)" stroke="none" stroke-width="0"/><rect x="17" y="0" width="15" height="229" fill="url(#vent)" stroke="none" stroke-width="0"/><rect x="928" y="0" width="15" height="229" fill="url(#vent)" stroke="none" stroke-width="0"/><path d="M38 0V229M922 0V229" fill="none" stroke="#131c17" stroke-width="3" stroke-linejoin="miter"/><rect x="57" y="8" width="846" height="30" fill="#f7efb7" stroke="#24291e" stroke-width="1.5"/><text x="73" y="29" font-family="Arial Narrow, Liberation Sans Narrow, Arial, sans-serif" font-size="15" font-weight="700" fill="#24291e">GITHUB TELEMETRY   /   ACCOUNT SYSTEM STATUS</text><rect x="58" y="50" width="201" height="126" fill="url(#screen)" stroke="#24291e" stroke-width="1.4"/><rect x="58" y="50" width="201" height="27" fill="#e4d89d" stroke="#24291e" stroke-width="1"/><text x="68" y="69" font-family="Arial Narrow, Liberation Sans Narrow, Arial, sans-serif" font-size="13" font-weight="700" fill="#24291e">REPOSITORIES</text><text x="72" y="128" font-family="Arial Narrow, Liberation Sans Narrow, Arial, sans-serif" font-size="37" font-weight="700" fill="#24291e">8</text><rect x="71" y="146" width="175" height="19" fill="#eec04c" stroke="none" stroke-width="0"/><text x="78" y="160" font-family="Arial Narrow, Liberation Sans Narrow, Arial, sans-serif" font-size="11" font-weight="700" fill="#24291e">SYSTEM ONLINE</text><rect x="271" y="50" width="201" height="126" fill="url(#screen)" stroke="#24291e" stroke-width="1.4"/><rect x="271" y="50" width="201" height="27" fill="#e4d89d" stroke="#24291e" stroke-width="1"/><text x="281" y="69" font-family="Arial Narrow, Liberation Sans Narrow, Arial, sans-serif" font-size="13" font-weight="700" fill="#24291e">STARS</text><text x="285" y="128" font-family="Arial Narrow, Liberation Sans Narrow, Arial, sans-serif" font-size="37" font-weight="700" fill="#24291e">0</text><rect x="284" y="146" width="175" height="19" fill="#eec04c" stroke="none" stroke-width="0"/><text x="291" y="160" font-family="Arial Narrow, Liberation Sans Narrow, Arial, sans-serif" font-size="11" font-weight="700" fill="#24291e">SYSTEM ONLINE</text><rect x="484" y="50" width="201" height="126" fill="url(#screen)" stroke="#24291e" stroke-width="1.4"/><rect x="484" y="50" width="201" height="27" fill="#e4d89d" stroke="#24291e" stroke-width="1"/><text x="494" y="69" font-family="Arial Narrow, Liberation Sans Narrow, Arial, sans-serif" font-size="13" font-weight="700" fill="#24291e">FOLLOWERS</text><text x="498" y="128" font-family="Arial Narrow, Liberation Sans Narrow, Arial, sans-serif" font-size="37" font-weight="700" fill="#24291e">0</text><rect x="497" y="146" width="175" height="19" fill="#eec04c" stroke="none" stroke-width="0"/><text x="504" y="160" font-family="Arial Narrow, Liberation Sans Narrow, Arial, sans-serif" font-size="11" font-weight="700" fill="#24291e">SYSTEM ONLINE</text><rect x="697" y="50" width="201" height="126" fill="url(#screen)" stroke="#24291e" stroke-width="1.4"/><rect x="697" y="50" width="201" height="27" fill="#e4d89d" stroke="#24291e" stroke-width="1"/><text x="707" y="69" font-family="Arial Narrow, Liberation Sans Narrow, Arial, sans-serif" font-size="13" font-weight="700" fill="#24291e">FORKS</text><text x="711" y="128" font-family="Arial Narrow, Liberation Sans Narrow, Arial, sans-serif" font-size="37" font-weight="700" fill="#24291e">0</text><rect x="710" y="146" width="175" height="19" fill="#eec04c" stroke="none" stroke-width="0"/><text x="717" y="160" font-family="Arial Narrow, Liberation Sans Narrow, Arial, sans-serif" font-size="11" font-weight="700" fill="#24291e">SYSTEM ONLINE</text><path d="M158 177v13H800v-13M478 190v11" fill="none" stroke="#24291e" stroke-width="2" stroke-linejoin="miter"/><text x="74" y="215" font-family="Arial Narrow, Liberation Sans Narrow, Arial, sans-serif" font-size="13" font-weight="700" fill="#24291e">LANGUAGE INDEX: Lua, Python</text></svg>