<svg xmlns="http://www.w3.org/2000/svg" width="1100" height="280" viewBox="0 0 1100 280">
<defs><linearGradient id="p" x2="0" y2="1"><stop stop-color="#fff8bb"/><stop offset="1" stop-color="#ebdea0"/></linearGradient><pattern id="v" width="15" height="20" patternUnits="userSpaceOnUse"><path d="M4 3h7v14H4z" fill="#66715e" stroke="#222820"/></pattern></defs>
<rect width="1100" height="280" fill="#111b16"/>
<rect x="15" y="0" width="1070" height="280" fill="#26342b"/>
<rect x="45" y="0" width="1010" height="280" fill="url(#p)"/>
<rect x="18" y="0" width="19" height="280" fill="url(#v)"/><rect x="1063" y="0" width="19" height="280" fill="url(#v)"/>
<path d="M45 0V280M1055 0V280" fill="none" stroke="#212a20" stroke-width="5"/>
<rect x="67" y="12" width="966" height="38" fill="#eee3a1" stroke="#272b22" stroke-width="2"/><text x="85" y="39" font-family="Arial,Helvetica,sans-serif" font-size="20" font-weight="700" fill="#222820">MILITECH / CYNOSURE  //  CONTROL SYSTEM</text><text x="850" y="39" font-family="Arial,Helvetica,sans-serif" font-size="15" font-weight="700" fill="#222820">ACCESS: VERIFIED</text><rect x="74" y="66" width="950" height="188" fill="#f6eaaa" stroke="#272b22" stroke-width="2"/><text x="99" y="95" font-family="Arial,Helvetica,sans-serif" font-size="16" font-weight="700" fill="#222820">OPERATOR IDENTITY / SECURE INTERFACE</text><text x="98" y="170" font-family="Arial,Helvetica,sans-serif" font-size="66" font-weight="700" fill="#222820">Big2What</text><text x="103" y="213" font-family="Arial,Helvetica,sans-serif" font-size="22" font-weight="700" fill="#222820">RETIRED CYBERSECURITY ANALYST</text><g transform="translate(911 162)"><circle r="73" fill="#e4d693" stroke="#272b22" stroke-width="5"/><circle r="54" fill="none" stroke="#34382b" stroke-width="4" stroke-dasharray="9 7"><animateTransform attributeName="transform" type="rotate" from="0" to="360" dur="35s" repeatCount="indefinite"/></circle><path d="M0 -38L34 27H-34Z" fill="none" stroke="#272b22" stroke-width="5"/></g>
</svg>